<svg id="Layer_1" data-name="Layer 1" xmlns="http://www.w3.org/2000/svg" viewBox="0 0 19.14 202"><defs><style>.cls-1{fill:none;stroke:#cc9f53;stroke-width:0.75px;}</style></defs><path class="cls-1" d="M19.49,103.37A70.85,70.85,0,0,0,1.69,101"/><path class="cls-1" d="M19.49,98.63A70.85,70.85,0,0,1,1.69,101"/><path class="cls-1" d="M19.44,110.77A91.19,91.19,0,0,0,.72,103.44"/><path class="cls-1" d="M19.44,91.23A91.19,91.19,0,0,1,.72,98.56"/><path class="cls-1" d="M19.39,123.19a115.45,115.45,0,0,0-19-12.47"/><path class="cls-1" d="M19.51,141.39C8.69,154-1.31,170,2.69,188c2,7,10,11,16.81,12.2"/><path class="cls-1" d="M19.39,78.81a115.45,115.45,0,0,1-19,12.47"/><path class="cls-1" d="M19.51,60.61C8.69,48-1.31,32,2.69,14c2-7,10-11,16.81-12.2"/><path class="cls-1" d="M19.52,142.25A125.51,125.51,0,0,0,.41,123.08"/><path class="cls-1" d="M.27,200.25a46.41,46.41,0,0,0,19.21-.18"/><path class="cls-1" d="M19.54,122.7A126.51,126.51,0,0,0,.37,141.33"/><path class="cls-1" d="M19.52,59.75A125.51,125.51,0,0,1,.41,78.92"/><path class="cls-1" d="M.27,1.75a46.41,46.41,0,0,1,19.21.18"/><path class="cls-1" d="M19.54,79.3A126.51,126.51,0,0,1,.37,60.67"/><path class="cls-1" d="M.49,200.28C6.69,199,12.69,196,15.69,190c7-17-4-36-15.57-48.32"/><path class="cls-1" d="M19.56,110.41A118.19,118.19,0,0,0,.18,122.83"/><path class="cls-1" d="M.49,1.72C6.69,3,12.69,6,15.69,12c7,17-4,36-15.57,48.32"/><path class="cls-1" d="M19.56,91.59A118.19,118.19,0,0,1,.18,79.17"/><path class="cls-1" d="M19.55,103.18a92.91,92.91,0,0,0-19.34,7.3"/><path class="cls-1" d="M19.55,98.82A92.91,92.91,0,0,1,.21,91.52"/><path class="cls-1" d="M17.59,101A70.22,70.22,0,0,0,.17,103.28"/><path class="cls-1" d="M17.59,101A70.22,70.22,0,0,1,.17,98.72"/></svg>