<svg id="Layer_1" data-name="Layer 1" xmlns="http://www.w3.org/2000/svg" xmlns:xlink="http://www.w3.org/1999/xlink" viewBox="0 0 10 202"><defs><style>.cls-1,.cls-3{fill:none;}.cls-2{clip-path:url(#clip-path);}.cls-3{stroke:#cc9f53;stroke-width:0.75px;}</style><clipPath id="clip-path"><rect class="cls-1" y="-0.04" width="10" height="202"/></clipPath></defs><g class="cls-2"><path class="cls-3" d="M-6.06,69.94c18-36.81,11.41-58.87,0-66.19Z"/><path class="cls-3" d="M-6.06,198.23c11.4-7.34,17.92-29.39,0-66.17Z"/><path class="cls-3" d="M-6.06,1.07V84.71c.33.55.65,1.1,1,1.65C6.53,67.54,12.37,51.83,14.35,39.24V20.72C11.66,7.08,2.68.54-6.06,1.07Z"/><path class="cls-3" d="M-5.07,115.63c-.34.55-.66,1.09-1,1.64v83.66c8.75.52,17.74-6.05,20.41-19.73V162.82C12.38,150.21,6.54,134.48-5.07,115.63Z"/><path class="cls-3" d="M-5.06,86.36l-1,1.59v26.1l1,1.58q4.34-7,9.76-14.63Q-.75,93.4-5.06,86.36Z"/><path class="cls-3" d="M-6.06,5.22V65.7A182,182,0,0,0,5,86.36a187.25,187.25,0,0,0,9.33-16.92V3.91A16.66,16.66,0,0,0-6.06,5.22Z"/><path class="cls-3" d="M14.35,100.41Q9.18,93.12,5,86.36.69,93.4-4.73,101,.7,108.6,5,115.63q4.17-6.75,9.34-14Z"/><path class="cls-3" d="M5,115.63A183.08,183.08,0,0,0-6.06,136.25v60.56a16.67,16.67,0,0,0,20.41,1.26v-65.5A187.67,187.67,0,0,0,5,115.63Z"/><path class="cls-3" d="M14.35,114.44V87.56q-4,6.48-9,13.44Q10.33,108,14.35,114.44Z"/><path class="cls-3" d="M14.35,1.05c-17.13.79-33.54,28.82,0,84.09Z"/><path class="cls-3" d="M14.35,116.85c-33.61,55.31-17.16,83.35,0,84.11Z"/><path class="cls-3" d="M14.35,135.71c-15,32.8-9.94,53.23,0,61.31Z"/><path class="cls-3" d="M14.35,5c-9.94,8.08-15,28.51,0,61.31Z"/></g></svg>