<svg id="Layer_1" data-name="Layer 1" xmlns="http://www.w3.org/2000/svg" viewBox="0 0 310 570"><defs><style>.cls-1{fill:none;stroke:#cc9f53;stroke-width:0.75px;}</style></defs><path class="cls-1" d="M311,234.61c-40.1,90-48.26,200.56,0,248.5Z"/><path class="cls-1" d="M311,252c-60.6,97.86-80.76,225,0,259.65Z"/><path class="cls-1" d="M311,262.36c-77.78,90.76-116.13,217.31-24.9,257.46A160.81,160.81,0,0,0,311,528.4Z"/><path class="cls-1" d="M311,269.33c-90.3,75.94-147.44,191.58-65.66,246.25,19.3,12.91,41.8,21.64,65.66,26Z"/><path class="cls-1" d="M311,274.62C210.1,334,135.48,436.84,206,504.36c27.3,26.15,64.86,42.88,105.05,48.08Z"/><path class="cls-1" d="M311,279C202,320.15,111.69,408.06,169.14,486.44c31,42.34,84.7,70.24,141.86,74.55Z"/><path class="cls-1" d="M311,282.87C196.76,304.63,93.07,375.43,135.94,462.4,165.65,522.72,236.13,566.16,311,566.75Z"/><path class="cls-1" d="M311,286.59C194.73,288.18,80.37,339.89,107.48,433,130.37,511.56,217,576,311,568.82Z"/><path class="cls-1" d="M311,290.33C196,271.51,74,302.53,84.53,399.08,94.92,494.36,194.79,585.7,311,566.53Z"/><path class="cls-1" d="M311,294.36c-110.24-39-236.76-29.95-243.19,67.34-7.15,108.48,99.93,232,243.19,198.74Z"/><path class="cls-1" d="M311,299C208.87,240.46,81.21,226.61,57.85,321.91,29.28,438.58,134.82,597.49,311,552.34Z"/><path class="cls-1" d="M311,304.75C220.35,227.81,94.9,190.33,54.93,281,2.57,400,96.22,594.92,311,544.53Z"/><path class="cls-1" d="M311,312.78c-75.76-94.13-195.81-156.2-251.83-72.44C-17.77,355.4,53.44,584.05,310.43,539l.57-.12Z"/><path class="cls-1" d="M311,325.73C254.14,215.28,142.25,126,70.39,201-25.33,300.9,5.07,538.42,266,538.71c0,0,24.79-.86,45-8Z"/><path class="cls-1" d="M311,356.05c-29.69-128.57-132.51-258-222.69-192-111.64,81.81-122.91,321,134,366.62,0,0,57.24,8.07,72.19-12.88A122.39,122.39,0,0,0,311,484.22Z"/><path class="cls-1" d="M253.92,515.07C361.49,409.33,260.34,58,112.35,130.94c-124.17,61.19-176.84,294.82,68.24,384.3C180.59,515.24,235.55,533.1,253.92,515.07Z"/><path class="cls-1" d="M214.48,505.34c124.29-85.48,85.7-449-72.7-402.91-132.88,38.7-225.33,259.62.51,390.31C142.29,492.8,193.3,519.93,214.48,505.34Z"/><path class="cls-1" d="M177.38,488.91c137.23-62.63,162.36-427.3-1.66-409.44C38.1,94.53-91.28,296,108.4,464,108.4,464,154,499.55,177.38,488.91Z"/><path class="cls-1" d="M143.66,466.24c146-37.79,234.09-392.61,69.45-403.49-138.09-9.1-300.5,166.88-133,367C80.06,429.77,118.71,472.7,143.66,466.24Z"/><path class="cls-1" d="M311,98.79c-10.66-22.41-29.46-38.9-58.16-45.94C118.42,19.93-72.1,165.06,58.08,391.13c0,0,30.63,49,56.27,47,84-6.62,167.34-113.77,196.65-213.94Z"/><path class="cls-1" d="M311,59.62a100.21,100.21,0,0,0-17.29-9.69C167-5.89-45.77,104,43.2,349.28c0,0,21.63,53.52,47.22,56,78.14,7.5,170.86-71,220.58-157.42Z"/><path class="cls-1" d="M311,41.21C191.21-12.88-6.41,64.91,35.75,305.43c0,0,12,56.5,36.81,63.37C145.83,389.12,246.62,332.3,311,259.21Z"/><path class="cls-1" d="M311,27.38C198.26-12.71,36.28,45.57,36,261c0,0,2,57.77,25.25,68.82C128.69,362,235.13,325.45,311,266.56Z"/><path class="cls-1" d="M311,16.35C208.66-13.12,76.69,33.3,44.05,217.27c0,0-8.07,57.24,12.88,72.18C117.07,332.33,226.43,315.72,311,272Z"/><path class="cls-1" d="M311,7.82c-89.72-20-197.15,19-251.49,167.77,0,0-17.86,55,.17,73.33,51.4,52.29,160.8,55.26,251.32,27.51Z"/><path class="cls-1" d="M311,2.42C234.75-8.78,147.17,24.7,82,137.29c0-.06-27.14,51-12.6,72.19,41.38,60.16,147.91,82.16,241.59,70.88Z"/><path class="cls-1" d="M311,1C248-2.72,176.8,24.92,110.8,103.4c0,0-35.6,45.51-25,68.93C116.09,238.68,216.91,278.81,311,284.06Z"/><path class="cls-1" d="M311,3.86C260.48,5.11,203.8,25.83,145,75c0,0-43,38.7-36.52,63.6C126.79,209.23,219.2,266.29,311,287.77Z"/><path class="cls-1" d="M311,10.26c-38.54,3.07-81.28,16.28-127.38,42.82,0,0-49,30.63-46.94,56.27,5.75,73,87.34,145.42,174.32,182.42Z"/><path class="cls-1" d="M311,18.23c-26.34,2.46-54.85,8.86-85.47,20,0-.06-53.58,21.58-56.05,47.22-7,73.31,61.64,159.46,141.52,210.88Z"/><path class="cls-1" d="M311,25.69a389,389,0,0,0-41.62,5.06c-.06-.05-56.56,12-63.43,36.76C186.06,139.24,240.12,237.36,311,301.86Z"/><path class="cls-1" d="M311,31.19c-11.68.75-56.43,4.92-66.06,25-32.61,68.46,5.55,177.16,66.06,253.23Z"/><path class="cls-1" d="M311,39.22c-10.81,1.9-20.62,5.66-25.65,12.71C239.9,115.69,261.3,234.78,311,321Z"/><path class="cls-1" d="M311,72.76c-43.26,64.47-36.54,181.63,0,268.08Z"/><path class="cls-1" d="M311,140.58c-26.47,70.73-25.39,167.23,0,237.74Z"/><path class="cls-1" d="M311,201c-26.84,78.16-28.86,173.87,0,233.38Z"/></svg>