<svg id="Layer_1" data-name="Layer 1" xmlns="http://www.w3.org/2000/svg" viewBox="0 0 310 570"><defs><style>.cls-1{fill:none;stroke:#cc9f53;stroke-width:0.75px;}</style></defs><path class="cls-1" d="M313,300.28a40.69,40.69,0,1,0,0,49.56Z"/><path class="cls-1" d="M313,312.15a40.69,40.69,0,1,0,0,22.15Z"/><path class="cls-1" d="M296.22,349a40.69,40.69,0,1,0-57.54,0A40.69,40.69,0,0,0,296.22,349Z"/><path class="cls-1" d="M290.34,344.88a40.69,40.69,0,1,0-57.54,0A40.69,40.69,0,0,0,290.34,344.88Z"/><path class="cls-1" d="M285.32,339.83a40.68,40.68,0,1,0-57.53,0A40.67,40.67,0,0,0,285.32,339.83Z"/><path class="cls-1" d="M252.42,345.92a40.69,40.69,0,1,0-40.69-40.69A40.69,40.69,0,0,0,252.42,345.92Z"/><path class="cls-1" d="M249.44,339.45a40.69,40.69,0,1,0-40.69-40.69A40.69,40.69,0,0,0,249.44,339.45Z"/><path class="cls-1" d="M247.61,332.57a40.69,40.69,0,1,0-40.69-40.69A40.68,40.68,0,0,0,247.61,332.57Z"/><path class="cls-1" d="M247,325.46a40.69,40.69,0,1,0-40.69-40.68A40.68,40.68,0,0,0,247,325.46Z"/><path class="cls-1" d="M247.55,318.36a40.69,40.69,0,1,0-40.69-40.69A40.68,40.68,0,0,0,247.55,318.36Z"/><path class="cls-1" d="M249.44,311.48a40.69,40.69,0,1,0-40.69-40.69A40.69,40.69,0,0,0,249.44,311.48Z"/><path class="cls-1" d="M252.43,305.05a40.69,40.69,0,1,0-40.69-40.69A40.68,40.68,0,0,0,252.43,305.05Z"/><path class="cls-1" d="M256.48,299.18A40.69,40.69,0,1,0,215.8,258.5,40.68,40.68,0,0,0,256.48,299.18Z"/><path class="cls-1" d="M290.36,282.2a40.69,40.69,0,1,0-57.54,0A40.7,40.7,0,0,0,290.36,282.2Z"/><path class="cls-1" d="M296.21,278.12a40.69,40.69,0,1,0-57.54,0A40.69,40.69,0,0,0,296.21,278.12Z"/><path class="cls-1" d="M313,235.25a40.69,40.69,0,1,0,0,22.15Z"/><path class="cls-1" d="M313,219.65a40.69,40.69,0,1,0,0,49.68Z"/><path class="cls-1" d="M313,211.86a40.69,40.69,0,1,0,0,64Z"/><path class="cls-1" d="M313,208A40.69,40.69,0,1,0,313,281Z"/><path class="cls-1" d="M313,207.21a40.69,40.69,0,1,0,0,78.23Z"/><path class="cls-1" d="M313,209a39.76,39.76,0,0,0-4.65-.27,40.69,40.69,0,1,0,0,81.37,42.07,42.07,0,0,0,4.65-.27Z"/><path class="cls-1" d="M313,212.81a40.68,40.68,0,0,0,0,81.32Z"/><path class="cls-1" d="M313,218.25a40.69,40.69,0,0,0,0,80.44Z"/><path class="cls-1" d="M313,225a40.68,40.68,0,0,0,0,78.71Z"/><path class="cls-1" d="M313,232.34a40.69,40.69,0,0,0,0,76.91Z"/><path class="cls-1" d="M313,239.92a40.69,40.69,0,0,0,0,75.5Z"/><path class="cls-1" d="M313,247.25a40.7,40.7,0,0,0,0,75.05Z"/><path class="cls-1" d="M313,254.11a40.68,40.68,0,0,0,0,75.54Z"/><path class="cls-1" d="M313,260.36a40.69,40.69,0,0,0,0,76.91Z"/><path class="cls-1" d="M313,265.87a40.69,40.69,0,0,0,0,78.73Z"/><path class="cls-1" d="M313,270.92a40.69,40.69,0,0,0,0,80.44Z"/><path class="cls-1" d="M313,275.46a40.68,40.68,0,0,0,0,81.32Z"/><path class="cls-1" d="M313,279.83a42.07,42.07,0,0,0-4.65-.27,40.69,40.69,0,1,0,0,81.37,39.76,39.76,0,0,0,4.65-.27Z"/><path class="cls-1" d="M313,284.1a40.68,40.68,0,1,0,0,78.26Z"/><path class="cls-1" d="M313,288.57a40.69,40.69,0,1,0,0,73Z"/><path class="cls-1" d="M313,293.69a40.69,40.69,0,1,0,0,64Z"/><path class="cls-1" d="M311.5,375.52a154.73,154.73,0,0,0-59.2-11.21c-20.8.21-41.75,4.27-60.08,14.39a108.64,108.64,0,0,0-55.92,99.46c.88,20.8,7.91,40.65,22.85,55.52A76.47,76.47,0,0,0,213,555.87c23.35-.11,45.13-12.12,53.74-34.6,8-20.95,2.36-46.92-19.66-56.29-9.79-4.16-22.28-4.51-31.4,1.51-10.2,6.72-15.23,21.41-9.13,32.51,4.67,8.49,17,12.24,24.69,5.28,3.54-3.21,5.7-8.9,4.14-13.59-1.63-4.88-8.47-7.18-12-2.77-1.7,2.13-2,5.71.25,7.59s6.78.92,6.09-2.66"/><path class="cls-1" d="M311.14,381.37a154.66,154.66,0,0,0-55-19.29c-19.92-2.95-41.07-2.45-60.39,3.64a108.65,108.65,0,0,0-73.86,83.08c-4,21.13-2.17,43.88,9,62.63a76.62,76.62,0,0,0,58,36.77c24,2.34,47.68-8.14,58-30.82,9.14-20,5.5-45.38-15-56.51-9.09-4.93-21.07-6.56-30.6-1.94-11,5.32-17.74,19-13.53,30.85,3.29,9.27,14.79,14.91,23.66,9.36,4.58-2.87,8-9.32,6.05-14.72-1.75-4.81-8.6-6.71-11.9-2.27-1.66,2.22-1.81,5.78.63,7.51,2.27,1.6,6,.6,5.73-2.6"/><path class="cls-1" d="M311.36,389.65a155.33,155.33,0,0,0-52.74-28.13c-19.76-6-41.42-8.53-61.94-5.51a108.56,108.56,0,0,0-87.28,73.84c-6.79,21-7.74,44.7,1.41,65.1a76.54,76.54,0,0,0,54.65,43.47c24.54,4.83,50-4,62.12-26.9,10.46-19.79,7.77-45.7-12.9-57.52-9.29-5.31-21.54-7.1-31.25-1.88-10.1,5.43-16.52,18.34-12.63,29.56,3.22,9.29,15,15,23.73,9.13,4-2.71,7.25-8.36,5.92-13.29s-8.23-7.52-11.83-3.14c-5.58,6.78,6,11.18,6.09,5.29"/><path class="cls-1" d="M311.44,401.09a154.55,154.55,0,0,0-107-53.31,108.54,108.54,0,0,0-101.61,54.93c-10.49,18.55-16.3,41.4-13,62.67a76.63,76.63,0,0,0,41.91,56.7c23.41,11.37,52.44,10.39,70.81-9.72,15.72-17.21,20-45.67,1.38-62.4-8-7.19-19.9-11.58-30.6-9-12.27,2.95-21.81,15.5-19.63,28.31,1.67,9.8,12.36,17.56,22.12,13.16,4.5-2,8.31-7,8.16-12.1-.15-5.25-6.2-9.32-10.84-6-2.36,1.71-3.61,5.39-1.53,7.8,1.86,2.15,6,2,6.27-1.35"/><path class="cls-1" d="M311.33,418.62a154.87,154.87,0,0,0-98.15-75.54c-21.44-5.34-43.56-5.57-64.65,1.48a109.27,109.27,0,0,0-50.74,35.55c-13.65,17.2-22.85,39.56-23,61.69a76.58,76.58,0,0,0,35.15,64.68c21.74,13.85,50.53,16.55,71.27-.71,17.51-14.56,26-41.78,11.06-61.07-6.56-8.46-17.23-14.59-28.1-14.57-12.9,0-24.45,10-25.83,22.95-1.12,10.44,7.22,21.19,18.44,19.42a14.14,14.14,0,0,0,11.32-10.19c1.31-5.3-3.37-11.46-9.17-9.06-2.59,1.08-4.64,4.28-3.55,7.08s6.29,4.09,6.93.2"/><path class="cls-1" d="M308.23,520.36A155,155,0,0,0,195.29,332.45a108.5,108.5,0,0,0-131.52,79,76,76,0,0,0,55.36,92.09,53.18,53.18,0,0,0,64.47-38.74c5-19.94-7.68-40.4-27.62-45.39a26,26,0,0,0-27.25,9.77,25.85,25.85,0,0,0-4.33,9.2C122,448.21,127,457.55,136.72,460A13.9,13.9,0,0,0,153,451.13a7.33,7.33,0,0,0-4.92-9.91,6.12,6.12,0,0,0-4.73.68,6.16,6.16,0,0,0-2.84,3.85,4.44,4.44,0,0,0,.52,3.32,4.51,4.51,0,0,0,2.69,2,3.23,3.23,0,0,0,1.2.06,3.08,3.08,0,0,0,1.13-.41,3,3,0,0,0,.89-.8,3.2,3.2,0,0,0,.51-1.09"/><path class="cls-1" d="M287.66,521.22a155,155,0,0,0-96.16-197A108.38,108.38,0,0,0,53.63,391.42,76,76,0,0,0,100.73,488a53.15,53.15,0,0,0,67.57-33c6.7-19.43-4.13-40.92-23.56-47.62a26,26,0,0,0-19.91,1.21,26.07,26.07,0,0,0-13.21,14.95c-3.26,9.51.86,19.25,10.43,22.52a13.85,13.85,0,0,0,17-7.39,7.35,7.35,0,0,0-4-10.32,6.2,6.2,0,0,0-6.74,1.77,6.13,6.13,0,0,0-1.22,2.13,4.21,4.21,0,0,0-.24,1.69,4.33,4.33,0,0,0,.42,1.65,4.18,4.18,0,0,0,1,1.36,4.35,4.35,0,0,0,1.47.86,3.16,3.16,0,0,0,1.18.17,3.07,3.07,0,0,0,1.16-.31,2.92,2.92,0,0,0,1-.72,3,3,0,0,0,.61-1"/><path class="cls-1" d="M267.09,520.3a155.1,155.1,0,0,0-78.62-204.69A108.49,108.49,0,0,0,45.2,370.56,75.95,75.95,0,0,0,83.71,470.85a53.19,53.19,0,0,0,70.2-26.94c8.37-18.79-.51-41.14-19.31-49.51a26.06,26.06,0,0,0-34.38,13.18c-4.07,9.23-.8,19.25,8.42,23.38a14,14,0,0,0,17.59-5.84,7.29,7.29,0,0,0-3.09-10.6,6.16,6.16,0,0,0-6.86,1.14,6.09,6.09,0,0,0-1.39,2,4.16,4.16,0,0,0-.38,1.67,4.37,4.37,0,0,0,2.61,4.11,3.07,3.07,0,0,0,2.36.07,3.1,3.1,0,0,0,1.71-1.61"/><path class="cls-1" d="M246.63,517.55a155.08,155.08,0,0,0-60.45-210.77A108.49,108.49,0,0,0,38.67,349.07,76,76,0,0,0,68.3,452.34a53.12,53.12,0,0,0,72.26-20.69c10-18,3.09-41-14.9-51a26.05,26.05,0,0,0-35.41,10.14c-4.87,8.82-2.47,19.14,6.3,24a13.88,13.88,0,0,0,18-4.3,7.28,7.28,0,0,0-2.17-10.83,6.38,6.38,0,0,0-2.33-.75,6.25,6.25,0,0,0-2.43.21,6.13,6.13,0,0,0-3.72,3,4.39,4.39,0,0,0-.37,3.33,4.44,4.44,0,0,0,2.08,2.63,3.12,3.12,0,0,0,4.19-1.21"/><path class="cls-1" d="M226.52,513.08A155,155,0,0,0,184.63,297.9,108.46,108.46,0,0,0,34,327.12,76,76,0,0,0,54.55,432.57a53.12,53.12,0,0,0,73.8-14.33c11.52-17,6.65-40.57-10.42-52.09A26,26,0,0,0,89,366a25.77,25.77,0,0,0-7.21,7.17c-5.62,8.36-4.13,18.85,4.18,24.47a13.94,13.94,0,0,0,18.34-2.75,7.32,7.32,0,0,0-1.21-11,6.3,6.3,0,0,0-4.7-1,6.27,6.27,0,0,0-2.27.93,6.1,6.1,0,0,0-1.74,1.73,4.32,4.32,0,0,0-.66,3.28,4.3,4.3,0,0,0,.65,1.58,4.39,4.39,0,0,0,1.22,1.21,2.94,2.94,0,0,0,1.09.47,3.18,3.18,0,0,0,1.19,0,3,3,0,0,0,1.11-.45,3.19,3.19,0,0,0,.85-.83"/><path class="cls-1" d="M206.92,506.83a155,155,0,0,0-22.92-218,108.49,108.49,0,0,0-152.61,16A76,76,0,0,0,42.57,411.71a53.17,53.17,0,0,0,74.78-7.85c13-16,10.15-39.89-5.84-52.78a26,26,0,0,0-36.62,3.84c-6.36,7.85-5.79,18.39,2.06,24.75a14,14,0,0,0,18.51-1.14,7.32,7.32,0,0,0-.29-11.06,6.19,6.19,0,0,0-4.6-1.39,6.27,6.27,0,0,0-4.22,2.3,4.38,4.38,0,0,0,.63,6.14,3.17,3.17,0,0,0,1.06.56,3,3,0,0,0,1.19.11,3.1,3.1,0,0,0,1.14-.36,3.06,3.06,0,0,0,.91-.77"/><path class="cls-1" d="M187.89,498.92c59.43-61.54,57.71-159.7-3.89-219.19a108.47,108.47,0,0,0-153.41,2.64,76,76,0,0,0,1.89,107.45,53.17,53.17,0,0,0,75.19-1.32c14.27-14.79,13.58-38.85-1.21-53.12a26.11,26.11,0,0,0-36.84.63c-7,7.22-7.34,17.82-.12,24.81a14,14,0,0,0,18.51.52,7.32,7.32,0,0,0,.69-11.06,6.21,6.21,0,0,0-2-1.35,6.43,6.43,0,0,0-2.41-.44,6.2,6.2,0,0,0-4.38,2,4.41,4.41,0,0,0,.12,6.19,3.07,3.07,0,0,0,1,.65,3.07,3.07,0,0,0,3.34-.71"/><path class="cls-1" d="M169.61,489.41c64.59-56.16,71.4-154.09,15.25-218.73A108.51,108.51,0,0,0,31.8,260a76,76,0,0,0-7.51,107.16,53.16,53.16,0,0,0,75,5.28c15.53-13.47,16.91-37.48,3.44-53a26,26,0,0,0-27.91-7.63A25.7,25.7,0,0,0,66,316.81c-7.63,6.59-8.89,17.13-2.3,24.7a13.9,13.9,0,0,0,18.4,2.12,7.31,7.31,0,0,0,1.66-10.95,6.26,6.26,0,0,0-8.82-.63,4.42,4.42,0,0,0-.46,6.19,2.94,2.94,0,0,0,.94.74,3.08,3.08,0,0,0,1.15.31,3.05,3.05,0,0,0,2.21-.76"/><path class="cls-1" d="M152.25,478.3a155.09,155.09,0,0,0,34.27-216.56A108.51,108.51,0,0,0,35,237.73,76,76,0,0,0,18.16,343.86a53.09,53.09,0,0,0,74.26,11.75c16.62-12.1,20.12-35.88,8-52.5a26.09,26.09,0,0,0-36.39-5.78c-8.14,5.9-10.32,16.27-4.41,24.41a13.9,13.9,0,0,0,18.16,3.72,7.34,7.34,0,0,0,2.58-10.77A6.3,6.3,0,0,0,78.61,313a6.09,6.09,0,0,0-2.29-.84,6,6,0,0,0-2.43.1,6.21,6.21,0,0,0-2.21,1,4.46,4.46,0,0,0-1.76,2.87,4.39,4.39,0,0,0,.79,3.27,3.11,3.11,0,0,0,2,1.22,3.06,3.06,0,0,0,2.29-.54"/><path class="cls-1" d="M135.92,465.74c73.35-44.06,97.07-139.36,53-212.71A108.45,108.45,0,0,0,40.05,215.9a75.85,75.85,0,0,0-26,104.18A53.19,53.19,0,0,0,87,338.3c17.59-10.6,23.15-34,12.6-51.63a26.09,26.09,0,0,0-35.75-8.94c-8.66,5.21-11.69,15.3-6.54,23.95A14,14,0,0,0,75.12,307a7.32,7.32,0,0,0,3.55-10.48A6,6,0,0,0,77,294.66a6.22,6.22,0,0,0-7-.31,4.38,4.38,0,0,0-1.49,6,2.93,2.93,0,0,0,.79.89,3.07,3.07,0,0,0,1.08.51,3,3,0,0,0,1.19.05,2.82,2.82,0,0,0,1.12-.42"/><path class="cls-1" d="M120.73,451.82a155,155,0,0,0,71.35-207.33,108.48,108.48,0,0,0-145.1-50A76,76,0,0,0,12,296.12a53.09,53.09,0,0,0,71.05,24.47c18.46-9,26-31.86,17-50.31a26,26,0,0,0-34.84-12c-9.05,4.41-13,14.27-8.59,23.32a13.94,13.94,0,0,0,17.24,6.82,7.28,7.28,0,0,0,4.42-10.14,6.22,6.22,0,0,0-3.58-3.2,6.27,6.27,0,0,0-2.43-.32,6.13,6.13,0,0,0-2.36.66,4.27,4.27,0,0,0-1.36,1,4.32,4.32,0,0,0-.86,1.48,4.22,4.22,0,0,0-.23,1.69,4.44,4.44,0,0,0,.44,1.65,3.18,3.18,0,0,0,.73,1,3.05,3.05,0,0,0,2.23.77,3,3,0,0,0,1.17-.31"/><path class="cls-1" d="M106.81,436.58C186.75,405.92,226.63,316.24,196,236.3A108.49,108.49,0,0,0,55.81,173.89,75.95,75.95,0,0,0,12.14,272a53.24,53.24,0,0,0,68.71,30.6c19.2-7.39,28.71-29.46,21.37-48.65a26.06,26.06,0,0,0-33.63-15C59.19,242.54,54.37,252,58,261.4a13.84,13.84,0,0,0,16.57,8.25A7.27,7.27,0,0,0,79.82,260a6.58,6.58,0,0,0-1.3-2.07,6.49,6.49,0,0,0-2-1.41,6.13,6.13,0,0,0-2.39-.54,6.32,6.32,0,0,0-2.4.41A4.41,4.41,0,0,0,69.22,262a3.07,3.07,0,0,0,1.61,1.69,3.11,3.11,0,0,0,2.34.08"/><path class="cls-1" d="M94.32,420.19A155,155,0,0,0,200.56,228.45,108.48,108.48,0,0,0,66.35,154.06a76,76,0,0,0-52.09,94A53.09,53.09,0,0,0,80,284.49c19.77-5.67,31.17-26.82,25.5-46.59A26.08,26.08,0,0,0,73.28,220c-9.68,2.75-15.3,11.75-12.49,21.43a13.93,13.93,0,0,0,15.82,9.69,7.35,7.35,0,0,0,6.13-9.23A6.25,6.25,0,0,0,75,237.62a4.23,4.23,0,0,0-1.52.78A4.35,4.35,0,0,0,72,243.06a3.14,3.14,0,0,0,1.46,1.83,3.1,3.1,0,0,0,2.33.29"/><path class="cls-1" d="M83.26,402.82A155,155,0,0,0,205.83,221.05,108.5,108.5,0,0,0,78.61,135.21a76,76,0,0,0-60,89,53.18,53.18,0,0,0,62.35,42.06c20.17-3.89,33.4-24,29.45-44.18a26,26,0,0,0-30.54-20.63c-9.92,2-16.22,10.37-14.33,20.29a13.83,13.83,0,0,0,14.9,11,7.37,7.37,0,0,0,6.93-8.65,6.23,6.23,0,0,0-.91-2.27,6.24,6.24,0,0,0-4-2.67,6.08,6.08,0,0,0-2.44,0,4.39,4.39,0,0,0-3.44,5.16,3.14,3.14,0,0,0,.46,1.1,2.87,2.87,0,0,0,.85.85,3.14,3.14,0,0,0,1.1.46,3.23,3.23,0,0,0,1.2,0"/><path class="cls-1" d="M73.8,384.54A155.09,155.09,0,0,0,211.73,214.12,108.45,108.45,0,0,0,92.48,117.56a76,76,0,0,0-67.62,83.49,53.21,53.21,0,0,0,58.45,47.34c20.46-2.18,35.36-21,33.24-41.49A26.06,26.06,0,0,0,87.9,183.69c-10,1-17.08,8.94-16.05,19a13.92,13.92,0,0,0,13.87,12.26,7.28,7.28,0,0,0,7.62-8,6.07,6.07,0,0,0-.72-2.34,6.21,6.21,0,0,0-6.16-3.22,4.39,4.39,0,0,0-2.94,1.6,4.57,4.57,0,0,0-.8,1.51,4.44,4.44,0,0,0-.15,1.7A3.07,3.07,0,0,0,86,208.9"/><path class="cls-1" d="M65.89,365.46a155,155,0,0,0,152.26-157.7A108.42,108.42,0,0,0,107.78,101.17a75.87,75.87,0,0,0-74.55,77.25,53.18,53.18,0,0,0,54.09,52.26c20.58-.34,37.08-17.88,36.74-38.39a26.07,26.07,0,0,0-26.48-25.62c-10.08.17-17.82,7.39-17.65,17.48a14,14,0,0,0,12.72,13.47,7.33,7.33,0,0,0,8.31-7.34,6.09,6.09,0,0,0-.51-2.38A6.22,6.22,0,0,0,97,184.57a6.14,6.14,0,0,0-2.4-.42,4.41,4.41,0,0,0-3.07,1.35,4.47,4.47,0,0,0-1.23,3.12,3.11,3.11,0,0,0,3.1,3"/><path class="cls-1" d="M59.76,345.81A155,155,0,0,0,225.2,202,108.48,108.48,0,0,0,124.57,86.16a76,76,0,0,0-81.08,70.48,53.15,53.15,0,0,0,49.34,56.74c20.51,1.43,38.45-14.56,39.88-35.08a26,26,0,0,0-6.31-18.92,26,26,0,0,0-17.87-8.87c-10-.69-18.4,5.85-19.09,15.87A13.89,13.89,0,0,0,101,180.88a7.29,7.29,0,0,0,8.89-6.59,6.3,6.3,0,0,0-5.79-6.7,4.41,4.41,0,0,0-3.19,1.06,4.46,4.46,0,0,0-1.51,3,3,3,0,0,0,.15,1.19,3.13,3.13,0,0,0,.6,1,3,3,0,0,0,1,.73,2.9,2.9,0,0,0,1.15.31"/><path class="cls-1" d="M55.29,325.69A155,155,0,0,0,232.65,196.81a108.44,108.44,0,0,0-90.2-124.12,75.92,75.92,0,0,0-86.87,63.09,53.22,53.22,0,0,0,44.18,60.86c20.28,3.21,39.6-11.12,42.81-31.46a26.06,26.06,0,0,0-21.67-29.8c-10-1.54-18.79,4.19-20.4,14.16A14,14,0,0,0,110.7,165a7.33,7.33,0,0,0,9.46-5.79,6.25,6.25,0,0,0-5.22-7.16,4.29,4.29,0,0,0-1.71.06,4.23,4.23,0,0,0-1.55.72,4.11,4.11,0,0,0-1.15,1.27,4.19,4.19,0,0,0-.57,1.62,3,3,0,0,0,0,1.19,2.88,2.88,0,0,0,.5,1.08,2.92,2.92,0,0,0,.87.81,3,3,0,0,0,1.12.41"/><path class="cls-1" d="M52.65,305.23A155,155,0,0,0,240.56,192.29a108.44,108.44,0,0,0-79-131.52,76,76,0,0,0-92.09,55.36,53.18,53.18,0,0,0,38.74,64.47c19.94,5,40.4-7.68,45.39-27.62a26,26,0,0,0-9.77-27.25,25.85,25.85,0,0,0-9.2-4.33c-9.8-2.41-19.14,2.58-21.55,12.32A13.9,13.9,0,0,0,121.88,150a7.33,7.33,0,0,0,9.91-4.92,6.08,6.08,0,0,0,.14-2.44,6.22,6.22,0,0,0-.81-2.29,6.15,6.15,0,0,0-3.86-2.84,4.43,4.43,0,0,0-5.32,3.21,3,3,0,0,0,.34,2.33,3,3,0,0,0,.8.89,3.2,3.2,0,0,0,1.09.51"/><path class="cls-1" d="M51.79,284.66a155,155,0,0,0,197-96.16A108.38,108.38,0,0,0,181.59,50.63,76,76,0,0,0,85,97.73a53.15,53.15,0,0,0,33,67.57c19.43,6.7,40.92-4.13,47.62-23.56a26,26,0,0,0-16.16-33.12c-9.51-3.26-19.25.86-22.52,10.43a13.85,13.85,0,0,0,7.39,17,7.35,7.35,0,0,0,10.32-4,6.25,6.25,0,0,0-.28-4.8,6.23,6.23,0,0,0-3.62-3.16,4.21,4.21,0,0,0-1.69-.24,4.33,4.33,0,0,0-1.65.42,4.44,4.44,0,0,0-1.36,1,4.35,4.35,0,0,0-.86,1.47,3,3,0,0,0-.16,1.18,2.89,2.89,0,0,0,.3,1.16,3.08,3.08,0,0,0,1.76,1.56"/><path class="cls-1" d="M52.71,264.09A155.1,155.1,0,0,0,257.4,185.47,108.46,108.46,0,0,0,202.45,42.21a75.91,75.91,0,0,0-100.28,38.5,53.17,53.17,0,0,0,26.93,70.2c18.8,8.37,41.14-.51,49.51-19.31a26.06,26.06,0,0,0-13.18-34.38c-9.22-4.07-19.25-.8-23.38,8.42a14,14,0,0,0,5.85,17.59,7.29,7.29,0,0,0,10.6-3.09,6.15,6.15,0,0,0,.56-2.38,6,6,0,0,0-.4-2.41,6.16,6.16,0,0,0-3.31-3.46,4.25,4.25,0,0,0-1.68-.38,4.19,4.19,0,0,0-1.68.29,4.42,4.42,0,0,0-1.45.92,4.27,4.27,0,0,0-1,1.4,3.11,3.11,0,0,0-.07,2.36,3.07,3.07,0,0,0,1.61,1.71"/><path class="cls-1" d="M55.46,243.63a155.08,155.08,0,0,0,210.77-60.45A108.49,108.49,0,0,0,223.94,35.67,76,76,0,0,0,120.68,65.3a53.11,53.11,0,0,0,20.68,72.26c18,10,41,3.09,51-14.9a26.06,26.06,0,0,0-10.14-35.41c-8.82-4.87-19.14-2.47-24,6.3a13.88,13.88,0,0,0,4.3,18,7.28,7.28,0,0,0,10.83-2.17,6.18,6.18,0,0,0-2.47-8.48,4.39,4.39,0,0,0-3.33-.37,4.48,4.48,0,0,0-2.63,2.08,3.13,3.13,0,0,0-.25,2.34,3.07,3.07,0,0,0,1.46,1.85"/><path class="cls-1" d="M59.93,223.52a155,155,0,0,0,215.18-41.89A108.45,108.45,0,0,0,245.89,31,75.95,75.95,0,0,0,140.45,51.55a53.11,53.11,0,0,0,14.32,73.8c17,11.52,40.57,6.65,52.09-10.42A26,26,0,0,0,207,86a25.77,25.77,0,0,0-7.17-7.21C191.45,73.15,181,74.64,175.34,83a13.94,13.94,0,0,0,2.76,18.34,7.31,7.31,0,0,0,11-1.21,6.16,6.16,0,0,0,1-2.25,6.15,6.15,0,0,0-.9-4.72,6.1,6.1,0,0,0-1.73-1.74,4.32,4.32,0,0,0-3.28-.66,4.3,4.3,0,0,0-1.58.65,4.39,4.39,0,0,0-1.21,1.22,3.11,3.11,0,0,0-.47,1.09,3.08,3.08,0,0,0,1.27,3.15"/><path class="cls-1" d="M66.18,203.92a155,155,0,0,0,218-22.92,108.49,108.49,0,0,0-16-152.61A76,76,0,0,0,161.3,39.57a53.17,53.17,0,0,0,7.85,74.78c16,13,39.89,10.15,52.78-5.84a26,26,0,0,0-3.84-36.62c-7.85-6.36-18.39-5.79-24.75,2.06a14,14,0,0,0,1.14,18.51,7.32,7.32,0,0,0,11.06-.29,6.19,6.19,0,0,0,1.39-4.6,6,6,0,0,0-.73-2.34,6.19,6.19,0,0,0-1.57-1.88,4.38,4.38,0,0,0-6.14.63,3.06,3.06,0,0,0-.67,2.25,3.1,3.1,0,0,0,.36,1.14,3.22,3.22,0,0,0,.77.91"/><path class="cls-1" d="M311.33,55.12c-12.59-23.92-34-43.41-61.27-47.85-27.48-4.47-59.33,7.17-74.13,31.65-15,24.82-6.74,65.49,23.61,74.49a38.39,38.39,0,0,0,34-6.29c11.28-8.69,15.14-24.29,6.84-36.47-3.66-5.38-9.43-9.44-16.12-9.42s-13.14,4.19-15.18,10.56c-1.86,5.81.65,15.55,7.91,16.09,7.08.52,11-11,3.18-12.16-3-.45-6.42,2.92-3.75,5.62"/><path class="cls-1" d="M74.09,184.89a154.33,154.33,0,0,0,95.76,43,156.12,156.12,0,0,0,51.83-4.77A154.58,154.58,0,0,0,270,200.83c15-10.42,28.73-23.47,38.23-39.2q1.73-2.85,3.27-5.81"/><path class="cls-1" d="M311.35,26.91a76.52,76.52,0,0,0-61.67-24c-24,1.88-49.11,15.74-58.31,38.83-9.82,24.61.87,60.12,29.16,66.34a38.37,38.37,0,0,0,31.94-7.38C264,91.5,266.07,74.26,256.2,63c-8-9.09-25.19-8.92-28.85,4.4-1.54,5.57.85,14.63,7.74,15.11,6.22.43,11-9.24,4.06-11.8-3-1.1-7.34,1.94-4.67,5.07"/><path class="cls-1" d="M83.6,166.61C92,179,104,186,115,194c12,8,23,14,36,18,6,1,11,4,17,5,20,3,38,4,58,1,33-6,63-21,85.35-44.94"/><path class="cls-1" d="M311.35,10.54a76.69,76.69,0,0,0-60.57-6.33c-24.4,7.76-44,28-43.56,54.75.38,23.93,17.61,47.46,43.29,45.57,11-.81,22.44-6.48,27.44-16.66,5.33-10.84,2.5-26.55-8.77-32.56-9.74-5.19-23.75.77-23.5,12.74.11,5,3.13,11.15,8.95,10.69S264,68.47,257.08,67c-2.84-.61-6.22,2.15-4.2,5"/><path class="cls-1" d="M94.72,149.25a155.38,155.38,0,0,0,76.05,55.82,156.21,156.21,0,0,0,91.74,2.19,155.34,155.34,0,0,0,48.76-23.74"/><path class="cls-1" d="M311.38,2.76c-23.29-6.14-50.4-1-68,16a53.15,53.15,0,0,0-11.9,58.74c8.83,20.61,33.76,31.65,54.12,19.71a27,27,0,0,0,12.79-28.91c-2.2-9.86-10.71-17.6-21.18-16-9.29,1.38-16.08,12.2-10.62,20.83a7,7,0,0,0,11.58.82c2.9-3.4,1.32-9.89-4.06-8.73-2.17.46-3.78,2.49-2.44,4.62"/><path class="cls-1" d="M107.27,132.92c15.62,27.43,40.17,48.27,68.69,61.33a155.49,155.49,0,0,0,88.89,12,149.27,149.27,0,0,0,46.6-15.1"/><path class="cls-1" d="M311.5,57.53c-7.32-8.11-22.12-7.49-26.7,3.3-1.95,4.62-1.41,11.82,3.51,14.45,4.27,2.27,9.26-.8,9.88-5.42,1-7.3-10.38-5.81-7.89-.78"/><path class="cls-1" d="M311.17,1.38C284.93,1,258.52,14.15,249.86,40.13,242.4,62.51,250.62,91,274.63,99c12.46,4.17,28,1.47,36.74-8.85"/><path class="cls-1" d="M121.19,117.73C153,187,240,223,311.24,196.48"/><path class="cls-1" d="M311.38,66.14a3.08,3.08,0,0,0-2.17,4"/><path class="cls-1" d="M311.26,55.29a14.06,14.06,0,0,0-8.35,11.28c-.46,5.1,2.51,11.55,8.55,10.65"/><path class="cls-1" d="M311.21,5.91c-19.33,4.42-35.38,17.42-41.64,36.52C263.77,60.15,267,82.25,282.67,94a38.79,38.79,0,0,0,28.81,7.28"/><path class="cls-1" d="M136.43,103.81a155.85,155.85,0,0,0,47.63,65.32,156.35,156.35,0,0,0,79.76,33.19,157.06,157.06,0,0,0,47.5-1.84"/><path class="cls-1" d="M311.1,17.7c-22.38,14-33.29,47.38-17.37,70.19a38,38,0,0,0,17.33,13.43"/><path class="cls-1" d="M152.82,91.32c6.82,26.62,21.78,50.66,41.79,69.39a162.66,162.66,0,0,0,71,38.76A152.46,152.46,0,0,0,311.28,204"/><path class="cls-1" d="M311.33,44c-7,14-8.05,31.87,0,45.65"/><path class="cls-1" d="M170.19,80.26C182,147,243,201,311.26,205.83"/><path class="cls-1" d="M188.47,70.8C190,83,191,94,195,106c6,17,15,32,26,47,23,29,55,46,90.27,53.75"/><path class="cls-1" d="M207.55,62.89C208,126,251,186,311.17,206.45"/><path class="cls-1" d="M227.21,56.76a155.14,155.14,0,0,0,11.59,70.6,155.57,155.57,0,0,0,72.7,78.38"/><path class="cls-1" d="M247.32,52.29C238,109,263,170,311.18,203.3"/><path class="cls-1" d="M267.78,49.65C254,102,271,162,311.28,199.41"/><path class="cls-1" d="M288.35,48.8a155.13,155.13,0,0,0,23,144.05"/><path class="cls-1" d="M308.92,49.71a155.13,155.13,0,0,0,2.56,131.49"/><path class="cls-1" d="M311.44,105.9a154.54,154.54,0,0,0,.05,43.49"/><path class="cls-1" d="M311.44,406.7a108.24,108.24,0,0,0,0,44.09"/><path class="cls-1" d="M311.3,384.25C292,418,291,461,311.33,494.7"/><path class="cls-1" d="M311.33,374.61c-14.11,16.64-24.34,36-27.72,57.68a108.62,108.62,0,0,0,27.63,90.55"/><path class="cls-1" d="M311.15,369c-20.34,17.54-36,40-41.38,66.59A109.42,109.42,0,0,0,281.22,510a105.61,105.61,0,0,0,29.93,34.17"/><path class="cls-1" d="M311.21,365.75c-26.71,17-48.3,41.72-55.89,72.94A109.35,109.35,0,0,0,271,525.45c10,14.66,23.45,27,40.22,33.37"/><path class="cls-1" d="M311.14,364c-16.34,7.45-31.92,17.78-44.43,30.74a108.46,108.46,0,0,0-5.88,143.92,77.18,77.18,0,0,0,44.34,27.12c2.08.42,4.19.76,6.3,1"/><path class="cls-1" d="M311.08,469.51c-9.16,4.69-15.58,13.33-15.7,23.86-.11,9.86,5.79,20.9,16.09,23"/><path class="cls-1" d="M311.22,363.42C273,375,238,401,225,440c-13,41-4,88,32,115,16,12,35,16,54.42,13.8"/><path class="cls-1" d="M311.37,468.1c-19.88-1.16-40.59,15.23-32.67,36.67,3.3,9,12.09,15.59,21.86,12.73,8.52-2.5,14.76-13.7,8.28-21.49-3.13-3.76-9.81-3.58-11.86,1.25-1.12,2.65-.26,6.44,2.65,7.52,2.73,1,6.73-1.37,4.82-4.54"/><path class="cls-1" d="M311.23,363.88C290,367,271,375,252,386c-11,8-20,16-28,27-7,9-11,18-15,28-11,31-8,65,11,94,20,31,58,43,91.29,29.71"/><path class="cls-1" d="M311.42,475.83c-16.95-11.64-47-8.27-52.13,14.79-2.45,10.91,2.68,25.07,14.8,27.27,10.25,1.86,20.43-6.66,17.77-17.39-1.32-5.34-7.83-9.19-12.35-4.53-2.25,2.33-2.49,6.84.41,8.79,2.62,1.78,7.53-.2,5.79-3.83"/><path class="cls-1" d="M311.16,365.26a153.41,153.41,0,0,0-66.32,17,108.56,108.56,0,0,0-57.17,112.09c3.57,24.06,15,47.3,35.47,61.21,23.15,15.71,55.18,17.77,79.57,3.5a54.28,54.28,0,0,0,8.42-6.11"/><path class="cls-1" d="M311.32,367.59a154.85,154.85,0,0,0-55.85,4.23c-18.64,4.91-36.08,13.25-50.4,26.31a108.67,108.67,0,0,0-33.53,100.3c4.18,22,15.19,42.14,34.16,54.77C226.46,567,254,570,277,560.06a53.71,53.71,0,0,0,32-53.24c-1.67-20.33-15.85-37.65-37.09-38.48-9.82-.38-20.15,3-26.28,11-6.69,8.78-7.59,22.71.08,31.24,6.57,7.31,19.53,7.94,25.25-.82,2.76-4.22,3.54-11.35-.48-15.1-3.41-3.18-9.6-2.26-11.16,2.43-2.72,8.22,9.51,8.27,7.55,2.78"/><path class="cls-1" d="M311.12,370.87a154.75,154.75,0,0,0-56.88-3.16c-19.54,2.56-38.59,8.63-54.86,19.94a108.65,108.65,0,0,0-46.21,97.69c1.67,20.72,9.16,40.65,24.37,55.23a76.57,76.57,0,0,0,64,20.25c24.37-3.71,44.45-21.4,47.59-46.52,2.66-21.3-8.15-42.92-30.31-47.46-9.54-2-20.48-.42-28,6.17-8.44,7.43-11.67,20.74-6.17,30.85,4.63,8.52,16.44,12.32,24.45,5.89,4.27-3.43,6.74-10.12,4.43-15.35s-10.21-6.16-12.66-.66c-3.51,7.87,8.75,9.25,7.26,3.47"/></svg>