<?xml version="1.0" encoding="UTF-8"?><!DOCTYPE svg PUBLIC "-//W3C//DTD SVG 1.1//EN" "http://www.w3.org/Graphics/SVG/1.1/DTD/svg11.dtd"><svg xmlns="http://www.w3.org/2000/svg" xmlns:xlink="http://www.w3.org/1999/xlink"><defs/><symbol id="svg-linkedin" viewBox="0 0 200 200">
    <path d="M1525.21,49.6c13.61,0,24.64-10.182,24.64-22.747,0-12.581-11.03-22.771-24.63-22.771-13.63,0-24.66,10.19-24.66,22.771,0,12.565,11.03,22.747,24.66,22.747m-19.01,146.311h44.22V66.927h-44.22V195.914Zm106.27-71.736c0-14.8,6.92-29.257,23.46-29.257s20.61,14.461,20.61,28.905v70.441h44.02V120.939c0-50.941-29.78-59.723-48.08-59.723s-28.4,6.263-40.01,21.435V65.271h-44.15V194.259h44.15V124.178Z" transform="translate(-1500)"/>
</symbol><symbol id="svg-instagram" viewBox="0 0 200 200">
    <path d="M1315.76,200h0m-15.73-18.015c-26.71,0-29.87-.108-40.42-0.577a55.1,55.1,0,0,1-18.57-3.447,33.076,33.076,0,0,1-18.99-18.969,55.278,55.278,0,0,1-3.44-18.569c-0.48-10.546-.58-13.723-0.58-40.423s0.1-29.862.58-40.4a55.33,55.33,0,0,1,3.44-18.577,31.059,31.059,0,0,1,7.48-11.485,31.027,31.027,0,0,1,11.51-7.477,55.139,55.139,0,0,1,18.57-3.446c10.54-.485,13.71-0.577,40.42-0.577s29.87,0.1,40.41.585a55.521,55.521,0,0,1,18.59,3.438,31.09,31.09,0,0,1,11.5,7.477,31.088,31.088,0,0,1,7.48,11.492,55.582,55.582,0,0,1,3.44,18.577c0.48,10.538.58,13.708,0.58,40.4s-0.11,29.861-.58,40.407a55.551,55.551,0,0,1-3.44,18.57,33.08,33.08,0,0,1-18.98,18.969,55.238,55.238,0,0,1-18.59,3.446c-10.54.469-13.7,0.577-40.41,0.577M1304.82,0h-9.58c-22.84,0-26.44.162-36.45,0.615a73.913,73.913,0,0,0-24.28,4.615,49.022,49.022,0,0,0-17.7,11.538,49.167,49.167,0,0,0-11.54,17.692,73.712,73.712,0,0,0-4.61,24.269C1200.12,69.446,1200,72.854,1200,100v0.085c0,27.123.12,30.523,0.6,41.184a73.456,73.456,0,0,0,4.62,24.269,51.253,51.253,0,0,0,29.24,29.231,73.66,73.66,0,0,0,24.28,4.616c8.2,0.384,12.09.538,25.55,0.615h31.47c13.46-.054,17.36-0.208,25.5-0.577a73.48,73.48,0,0,0,24.28-4.615,51.168,51.168,0,0,0,29.24-29.231,73.994,73.994,0,0,0,4.62-24.269c0.45-10,.58-13.623.6-36.508V95.285c0-22.885-.15-26.492-0.6-36.508a73.475,73.475,0,0,0-4.62-24.269,48.872,48.872,0,0,0-11.54-17.692,49,49,0,0,0-17.7-11.538A73.885,73.885,0,0,0,1341.27.662c-10-.5-13.62-0.662-36.45-0.662m-0.95,136.292a32.505,32.505,0,1,1,.01,0h-0.01Zm0-82.446a50,50,0,1,0,50.02,50A50,50,0,0,0,1303.87,53.846Z" transform="translate(-1200)"/>
</symbol><symbol id="svg-arrow" viewBox="0 0 200 200">
	<path d="M200.287,100.333l-7.966-9.3L122.49,9.569l-21.059,18.6,49.755,58H0.175V114.5H151.186l-49.755,58,21.059,18.6,69.831-81.467Z"/>
</symbol><symbol id="svg-arrowTimeline" viewBox="0 0 54.2 69.4">
    <g transform="translate(-175.11852,-4.0911249)">
        <path d="M193.5,14.7L175.1,4.1l27.1,69.4v0l0,0v0l27.1-69.4l-18.4,10.6L193.5,14.7z"/>
    </g>
</symbol><symbol id="svg-chevron" viewBox="0 0 7 9">
    <path d="M3.82612 4.09635L0.000249416 1.19523L0.90658 0L6.30798 4.09584L0.906829 8.19504L0 7.00019L3.82612 4.09635Z"/>
</symbol><symbol id="svg-chevronThin" viewBox="0 0 12 12">
    <path d="M6.012 5.996 1 2.196 1.907 1l6.587 4.995-6.587 5L1 9.8l5.012-3.804z"/>
</symbol><symbol id="svg-close" viewBox="0 0 22 22">
    <path d="M11 12.4142L20.2928 21.7071L21.7071 20.2929L12.4142 11L21.7071 1.70712L20.2928 0.292908L11 9.5858L1.70706 0.292908L0.292847 1.70712L9.58574 11L0.292847 20.2929L1.70706 21.7071L11 12.4142Z"/>
</symbol><symbol id="svg-email" viewBox="0 0 14 12">
	<path d="M1.17361 2.17491C1.27389 1.86418 1.56724 1.63672 1.90949 1.63672H12.0913C12.4336 1.63672 12.7269 1.86418 12.8272 2.17491L7.0004 6.25366L1.17361 2.17491ZM0.136781 2.40111C0.136705 2.40593 0.136699 2.41075 0.136762 2.41557V10.0458C0.136762 11.022 0.933347 11.8185 1.90949 11.8185H12.0913C13.0674 11.8185 13.864 11.022 13.864 10.0458V2.41563M12.864 3.36977V10.0458C12.864 10.4697 12.5152 10.8185 12.0913 10.8185H1.90949C1.48563 10.8185 1.13676 10.4697 1.13676 10.0458V3.36977L6.71367 7.27361C6.88583 7.39412 7.11497 7.39412 7.28713 7.27361L12.864 3.36977ZM13.864 2.40104C13.8595 1.42873 13.0646 0.636719 12.0913 0.636719H1.90949C0.936127 0.636719 0.141302 1.42877 0.136781 2.40111"/>
</symbol><symbol id="svg-error" viewBox="0 0 22.875 22.812">
	<path d="M363.045,258.708h16.9L371.5,241.827ZM381.8,261H361.193a1.143,1.143,0,0,1-1.025-1.654l10.3-20.582a1.193,1.193,0,0,1,2.048,0l10.3,20.582A1.143,1.143,0,0,1,381.8,261h0Zm-9.159-6.86h-2.29v-6.861h2.29v6.861Zm0.286,2.287a1.431,1.431,0,1,1-1.431-1.43,1.43,1.43,0,0,1,1.431,1.43" transform="translate(-360.063 -238.188)"/>
</symbol><symbol id="svg-info" viewBox="0 0 4 15">
    <path d="M0.300952 5.06384H3.47626V15H0.300952V5.06384ZM1.88868 0C2.93169 0 3.77736 0.845565 3.77736 1.88853C3.77736 2.93196 2.93162 3.77721 1.88868 3.77721C0.845491 3.77721 0 2.93188 0 1.88853C0 0.845521 0.845565 0 1.88868 0V0Z"/>
</symbol><symbol id="svg-lock" viewBox="0 0 17 23">
	<path d="M16.7737 22.7754C16.6288 22.9192 16.4322 23 16.2273 23H0.772727C0.567787 23 0.371241 22.9192 0.226327 22.7754C0.0814123 22.6317 0 22.4367 0 22.2333V9.96667C0 9.76333 0.0814123 9.56833 0.226327 9.42455C0.371241 9.28077 0.567787 9.2 0.772727 9.2H2.31818V6.13333C2.31818 4.50667 2.96948 2.94663 4.12879 1.79641C5.28811 0.646189 6.86048 0 8.5 0C10.1395 0 11.7119 0.646189 12.8712 1.79641C14.0305 2.94663 14.6818 4.50667 14.6818 6.13333V9.2H16.2273C16.4322 9.2 16.6288 9.28077 16.7737 9.42455C16.9186 9.56833 17 9.76333 17 9.96667V22.2333C17 22.4367 16.9186 22.6317 16.7737 22.7754ZM5.2216 2.88064C4.35211 3.74331 3.86364 4.91334 3.86364 6.13333V9.2H13.1364V6.13333C13.1364 4.91334 12.6479 3.74331 11.7784 2.88064C10.9089 2.01797 9.72964 1.53333 8.5 1.53333C7.27036 1.53333 6.09108 2.01797 5.2216 2.88064ZM15.4545 21.4667V10.7333H1.54545V21.4667H15.4545ZM6.88834 12.5708C7.33867 12.2064 7.90913 12.0044 8.5 12C9.09087 12.0044 9.66133 12.2064 10.1117 12.5708C10.562 12.9352 10.8635 13.4388 10.9636 13.9935C11.0637 14.5482 10.9559 15.1188 10.6591 15.6055C10.3622 16.0922 9.8953 16.464 9.33985 16.656V19.2C9.33985 19.4122 9.25136 19.6157 9.09386 19.7657C8.93636 19.9157 8.72274 20 8.5 20C8.27726 20 8.06364 19.9157 7.90614 19.7657C7.74864 19.6157 7.66015 19.4122 7.66015 19.2V16.656C7.1047 16.464 6.63776 16.0922 6.34094 15.6055C6.04413 15.1188 5.93633 14.5482 6.03639 13.9935C6.13645 13.4388 6.43801 12.9352 6.88834 12.5708ZM8.03341 15.0652C8.17152 15.1531 8.33389 15.2 8.5 15.2C8.72274 15.2 8.93636 15.1157 9.09386 14.9657C9.25136 14.8157 9.33985 14.6122 9.33985 14.4C9.33985 14.2418 9.29059 14.0871 9.19831 13.9555C9.10602 13.824 8.97486 13.7214 8.82139 13.6609C8.66793 13.6003 8.49907 13.5845 8.33615 13.6154C8.17324 13.6462 8.02359 13.7224 7.90614 13.8343C7.78868 13.9462 7.7087 14.0887 7.67629 14.2439C7.64388 14.3991 7.66052 14.56 7.72408 14.7061C7.78765 14.8523 7.89529 14.9773 8.03341 15.0652Z"/>
</symbol><symbol id="svg-menu" viewBox="0 0 24 20">
	<path d="M0 2H24V0H0V2ZM24 11H0V9H24V11ZM24 20H0V18H24V20Z"/>
</symbol><symbol id="svg-pause" viewBox="0 0 8 10">
<rect width="2" height="10"/>
<rect x="6" width="2" height="10"/>
</symbol><symbol id="svg-pdf" viewBox="0 0 20 21">
	<path d="M0.197021 0.0429993V20.698H19.802V0.0429993H0.197021ZM19.384 20.33H0.615021V0.411999H19.385L19.384 20.33Z"/>
	<path fill-rule="evenodd" clip-rule="evenodd" d="M17 14H3.00002V13.5H17V14Z"/>
	<path fill-rule="evenodd" clip-rule="evenodd" d="M17 17H3.00002V16.5H17V17Z"/>
	<path d="M5.03462 8.00115C5.13048 8.01468 5.2539 8.02164 5.39086 8.02164C6.0075 8.02164 6.53497 7.87089 6.89122 7.53526C7.16527 7.27475 7.31601 6.89106 7.31601 6.43907C7.31601 5.98672 7.11734 5.60315 6.82268 5.37033C6.51436 5.12373 6.0553 5.0003 5.41135 5.0003C4.77423 5.0003 4.322 5.04153 4.00002 5.09629V9.65225H5.03462V8.00115ZM5.03462 5.82915C5.10999 5.80866 5.2539 5.78805 5.46623 5.78805C5.98688 5.78805 6.28154 6.04148 6.28154 6.46639C6.28154 6.93911 5.93895 7.21986 5.38403 7.21986C5.23329 7.21986 5.12365 7.21303 5.03462 7.19242V5.82915Z"/>
	<path d="M11.2962 9.10398C11.7416 8.72712 12.0635 8.11744 12.0635 7.23371C12.0635 6.41841 11.7621 5.8497 11.2826 5.49333C10.8372 5.1577 10.2687 5 9.39164 5C8.86403 5 8.364 5.03427 7.98031 5.09598V9.63133C8.24069 9.6656 8.62438 9.7 9.16552 9.7C10.0699 9.70012 10.8098 9.50828 11.2962 9.10398ZM9.02843 5.84287C9.11747 5.82226 9.26821 5.80177 9.50115 5.80177C10.3987 5.80177 10.9604 6.30876 10.9537 7.26798C10.9537 8.371 10.337 8.89164 9.39151 8.88482C9.26138 8.88482 9.11747 8.88482 9.02843 8.8642V5.84287Z"/>
	<path d="M13.7964 7.79537H15.4544V6.94591H13.7964V5.89083H15.5708V5.03442H12.7481V9.6521H13.7964V7.79537Z"/>
</symbol><symbol id="svg-play" viewBox="0 0 10 12">
<path d="M0.5 0.866025L9 5.7735L0.5 10.681L0.5 0.866025Z"/>
</symbol><symbol id="svg-popup-arrow" viewBox="0 0 200 200">
    <path d="M131.36,26.31a6.17,6.17,0,0,0,6.24,5.74h21.24L109.63,81.79a6.28,6.28,0,0,0-.21,8.72,6.11,6.11,0,0,0,8.62-.28l49.2-49.74V62.06a6,6,0,0,0,11.92,1.38,6.37,6.37,0,0,0,0-1.38v-36a6.27,6.27,0,0,0-6-6h-35.6c-3.43,0-6.38,3.61-6.24,6.3Z"/>
</symbol><symbol id="svg-popup-square" viewBox="0 0 200 200">
    <path d="M20.86,47.93V174a6.18,6.18,0,0,0,6,6H152.29c4.83,0,7.08-2.48,7.08-7V86.06a6.32,6.32,0,0,0-6-6.16,6.24,6.24,0,0,0-5.89,6.16v82H32.71v-116H113.8a6,6,0,1,0,0-12H27.94c-4.48,0-7.07,4.6-7.07,7.94Z"/>
</symbol><symbol id="svg-quotes">
    <path d="M20.5 16.3c0 3.7 1.5 7.2 4.6 10.1l7.7-4.1v-3.5c-4.5-2.2-6.7-4.3-6.7-6.8s2.3-5.4 6.5-8.7L30.4.9c-6.6 4.4-9.9 10.1-9.9 15.4zm-16.2 0c0 3.7 1.5 7.2 4.6 10.1l7.7-4.1v-3.5c-4.5-2.2-6.7-4.3-6.7-6.8s2.3-5.4 6.5-8.7L14.2.9C7.6 5.3 4.3 11 4.3 16.3z"/>
</symbol><symbol id="svg-search" viewBox="0 0 22 22">
	<path d="M16.6445 9.32225C16.6445 13.3662 13.3662 16.6445 9.32225 16.6445C5.27828 16.6445 2 13.3662 2 9.32225C2 5.27828 5.27828 2 9.32225 2C13.3662 2 16.6445 5.27828 16.6445 9.32225ZM15.1689 16.5836C13.5699 17.8727 11.5362 18.6445 9.32225 18.6445C4.17372 18.6445 0 14.4708 0 9.32225C0 4.17372 4.17372 0 9.32225 0C14.4708 0 18.6445 4.17372 18.6445 9.32225C18.6445 11.5364 17.8726 13.5703 16.5832 15.1694L21.7067 20.2929L20.2925 21.7071L15.1689 16.5836Z"/>
</symbol><symbol id="svg-tick" viewBox="0 0 200 200">
  <path d="M87.821,491.937l-87.306-66.5,16.136-21.359,64.7,49.283L178.3,307.322l22.215,14.87Z" transform="translate(0 -300)"/>
</symbol><symbol id="svg-vcard" viewBox="0 0 18 18">
<path d="M0.966797 2.06799C0.5625 2.19807 0.196875 2.56721 0.0703125 2.97854C0 3.19651 0 3.31604 0 8.74768C0 14.1793 0 14.2989 0.0703125 14.5168C0.200391 14.9352 0.5625 15.2973 0.980859 15.4274C1.19883 15.4977 1.32187 15.4977 9 15.4977C16.6781 15.4977 16.8012 15.4977 17.0191 15.4274C17.4375 15.2973 17.7996 14.9352 17.9297 14.5168C18 14.2989 18 14.1793 18 8.74768C18 3.31604 18 3.19651 17.9297 2.97854C17.7996 2.56018 17.4375 2.19807 17.0191 2.06799C16.8012 1.99768 16.6816 1.99768 8.98594 2.0012C1.37812 2.0012 1.1707 2.00471 0.966797 2.06799ZM16.7871 3.21057L16.875 3.29495V8.74768V14.2004L16.7871 14.2848L16.7027 14.3727H15.0996H13.5V13.8981C13.5 13.4375 13.4965 13.4164 13.4121 13.3356C13.3312 13.2512 13.3031 13.2477 12.9375 13.2477C12.5719 13.2477 12.5437 13.2512 12.4629 13.3356C12.3785 13.4164 12.375 13.4375 12.375 13.8981V14.3727H9H5.625V13.8981C5.625 13.4375 5.62148 13.4164 5.53711 13.3356C5.45625 13.2512 5.42812 13.2477 5.0625 13.2477C4.69688 13.2477 4.66875 13.2512 4.58789 13.3356C4.50352 13.4164 4.5 13.4375 4.5 13.8981V14.3727H2.90039H1.29727L1.21289 14.2848L1.125 14.2004V8.74768V3.29495L1.21289 3.21057L1.29727 3.12268H9H16.7027L16.7871 3.21057Z"/>
<path d="M5.1047 4.31799C4.47188 4.48323 3.94454 4.98596 3.72306 5.62581C3.66329 5.79807 3.64571 5.93167 3.6422 6.21643C3.63868 6.84573 3.82853 7.27815 4.2961 7.71409C4.68282 8.0762 5.06251 8.22034 5.62501 8.22034C6.18751 8.22034 6.56719 8.0762 6.95391 7.71409C7.35469 7.33792 7.55508 6.94768 7.61133 6.42385C7.68868 5.68557 7.2668 4.87698 6.60587 4.50081C6.18048 4.25823 5.59688 4.18792 5.1047 4.31799Z"/>
<path d="M10.2129 5.46057C10.1285 5.54143 10.125 5.56956 10.125 5.93518C10.125 6.30081 10.1285 6.32893 10.2129 6.40979L10.2973 6.49768H12.9375H15.5777L15.6621 6.40979C15.7465 6.32893 15.75 6.30081 15.75 5.93518C15.75 5.56956 15.7465 5.54143 15.6621 5.46057L15.5777 5.37268H12.9375H10.2973L10.2129 5.46057Z"/>
<path d="M10.227 7.72463C10.1285 7.82659 10.125 7.83713 10.125 8.18518C10.125 8.53323 10.1285 8.54377 10.227 8.64573L10.3289 8.74768H12.9375H15.5461L15.648 8.64573C15.7465 8.54377 15.75 8.53323 15.75 8.18518C15.75 7.83713 15.7465 7.82659 15.648 7.72463L15.5461 7.62268H12.9375H10.3289L10.227 7.72463Z"/>
<path d="M3.55084 7.99534C2.98834 8.14651 2.61568 8.61409 2.40826 9.4262C2.29927 9.86213 2.23599 10.4563 2.25709 10.8711C2.28521 11.3914 2.5067 11.7887 2.88638 11.9996L3.07623 12.1051H5.62505H8.17388L8.32505 12.0242C8.55005 11.9047 8.74693 11.6867 8.86646 11.4301C9.00005 11.1489 9.03169 10.7516 8.96841 10.1574C8.82427 8.7969 8.32154 8.05159 7.47779 7.95315C7.30201 7.93206 7.2774 7.93909 6.97857 8.11487C5.87115 8.77229 5.38248 8.77229 4.27857 8.1219C3.94107 7.92151 3.87076 7.91096 3.55084 7.99534Z"/>
<path d="M10.2129 9.96057C10.1285 10.0414 10.125 10.0696 10.125 10.4352C10.125 10.8008 10.1285 10.8289 10.2129 10.9098L10.2973 10.9977H12.9375H15.5777L15.6621 10.9098C15.7465 10.8289 15.75 10.8008 15.75 10.4352C15.75 10.0696 15.7465 10.0414 15.6621 9.96057L15.5777 9.87268H12.9375H10.2973L10.2129 9.96057Z"/>
</symbol><symbol id="svg-zip" viewBox="0 0 20 21">
	<path d="M0.197021 0.0429993V20.698H19.802V0.0429993H0.197021ZM19.384 20.33H0.615021V0.411999H19.385V20.33H19.384Z"/>
	<path fill-rule="evenodd" clip-rule="evenodd" d="M17 14H3V13.5H17V14Z"/>
	<path fill-rule="evenodd" clip-rule="evenodd" d="M17 17H3V16.5H17V17Z"/>
	<path d="M5 9.13245L7.22191 5.9345V5.90678H5.20763V5.03463H8.59249V5.6437L6.41901 8.80012V8.82785H8.62712V9.7H5V9.13245Z"/>
	<path d="M10.3502 5.03463V9.7H9.29115V5.03463H10.3502Z"/>
	<path d="M11.2635 5.09698C11.589 5.04165 12.0459 5 12.6896 5C13.3402 5 13.804 5.1247 14.1153 5.37385C14.413 5.60908 14.6138 5.99673 14.6138 6.45363C14.6138 6.91041 14.4616 7.29794 14.1847 7.56114C13.8248 7.90024 13.2919 8.05254 12.6687 8.05254C12.5302 8.05254 12.4058 8.04552 12.3088 8.03184V9.7H11.2635V5.09698ZM12.3088 7.21501C12.3988 7.23584 12.5095 7.24274 12.6618 7.24274C13.2225 7.24274 13.5687 6.95896 13.5687 6.48148C13.5687 6.05218 13.271 5.79613 12.745 5.79613C12.5304 5.79613 12.3851 5.81696 12.3088 5.83766V7.21501Z"/>
</symbol></svg>