<?xml version="1.0" encoding="UTF-8"?>
<svg id="Layer_1" xmlns="http://www.w3.org/2000/svg"
    xmlns:xlink="http://www.w3.org/1999/xlink" viewBox="0 0 550 300">
    <defs>
        <style>
            .cls-1 {
                clip-path: url(#clippath);
            }

            .cls-2 {
                stroke-width: 0px;
            }

            .cls-2,
            .cls-3 {
                fill: none;
            }

            .cls-3 {
                stroke: #c9c9c8;
                stroke-width: .47px;
            }
        </style>
        <clipPath id="clippath">
            <rect class="cls-2" width="550" height="300" />
        </clipPath>
    </defs>
    <g class="cls-1">
        <path class="cls-3"
            d="m224.03-151.98c0,43.83-187.8,56.01-218.34,91.37C-30.24-19.01,250.39-21.49,301.42-6.37c85.14,25.22-77.39,106.97-77.39,154.52" />
        <path class="cls-3"
            d="m224.03-145.65c0,43.83-187.8,56.01-218.34,91.37C-30.24-12.68,250.39-15.16,301.42-.04c85.14,25.22-77.39,106.97-77.39,154.52" />
        <path class="cls-3"
            d="m224.03-139.31c0,43.83-187.8,56.01-218.34,91.37C-30.24-6.35,250.39-8.83,301.42,6.29c85.14,25.22-77.39,106.97-77.39,154.52" />
        <path class="cls-3"
            d="m224.03-132.98c0,43.83-187.8,56.01-218.34,91.37C-30.24-.02,250.39-2.49,301.42,12.62c85.14,25.22-77.39,106.97-77.39,154.52" />
        <path class="cls-3"
            d="m224.03-126.65c0,43.83-187.8,56.01-218.34,91.37C-30.24,6.31,250.39,3.84,301.42,18.95c85.14,25.22-77.39,106.97-77.39,154.52" />
        <path class="cls-3"
            d="m224.03-120.32c0,43.83-187.8,56.01-218.34,91.37C-30.24,12.65,250.39,10.17,301.42,25.28c85.14,25.22-77.39,106.97-77.39,154.52" />
        <path class="cls-3"
            d="m224.03-113.99c0,43.83-187.8,56.01-218.34,91.37C-30.24,18.98,250.39,16.5,301.42,31.62c85.14,25.22-77.39,106.97-77.39,154.52" />
        <path class="cls-3"
            d="m224.03-107.66C224.03-63.83,36.23-51.64,5.69-16.28-30.24,25.31,250.39,22.83,301.42,37.95c85.14,25.22-77.39,106.97-77.39,154.52" />
        <path class="cls-3"
            d="m224.03-101.32C224.03-57.49,36.23-45.31,5.69-9.95-30.24,31.64,250.39,29.16,301.42,44.28c85.14,25.22-77.39,106.97-77.39,154.52" />
        <path class="cls-3"
            d="m224.03-94.99C224.03-51.16,36.23-38.98,5.69-3.62-30.24,37.97,250.39,35.5,301.42,50.61c85.14,25.22-77.39,106.97-77.39,154.52" />
        <path class="cls-3"
            d="m224.03,148.03c0,43.83-187.8,56.01-218.34,91.37-35.93,41.59,244.7,39.12,295.73,54.23,85.14,25.22-77.39,106.97-77.39,154.52" />
        <path class="cls-3"
            d="m224.03,154.36c0,43.83-187.8,56.01-218.34,91.37-35.93,41.59,244.7,39.12,295.73,54.23,85.14,25.22-77.39,106.97-77.39,154.52" />
        <path class="cls-3"
            d="m224.03,160.69c0,43.83-187.8,56.01-218.34,91.37-35.93,41.59,244.7,39.12,295.73,54.23,85.14,25.22-77.39,106.97-77.39,154.52" />
        <path class="cls-3"
            d="m224.03,167.02c0,43.83-187.8,56.01-218.34,91.37-35.93,41.59,244.7,39.12,295.73,54.23,85.14,25.22-77.39,106.97-77.39,154.52" />
        <path class="cls-3"
            d="m224.03,173.36c0,43.83-187.8,56.01-218.34,91.37-35.93,41.59,244.7,39.12,295.73,54.23,85.14,25.22-77.39,106.97-77.39,154.52" />
        <path class="cls-3"
            d="m224.03,179.69c0,43.83-187.8,56.01-218.34,91.37-35.93,41.59,244.7,39.12,295.73,54.23,85.14,25.22-77.39,106.97-77.39,154.52" />
        <path class="cls-3"
            d="m224.03,186.02c0,43.83-187.8,56.01-218.34,91.37-35.93,41.59,244.7,39.12,295.73,54.23,85.14,25.22-77.39,106.97-77.39,154.52" />
        <path class="cls-3"
            d="m224.03,192.35c0,43.83-187.8,56.01-218.34,91.37-35.93,41.59,244.7,39.12,295.73,54.23,85.14,25.22-77.39,106.97-77.39,154.52" />
        <path class="cls-3"
            d="m224.03,198.68c0,43.83-187.8,56.01-218.34,91.37-35.93,41.59,244.7,39.12,295.73,54.23,85.14,25.22-77.39,106.97-77.39,154.52" />
        <path class="cls-3"
            d="m224.03,205.01c0,43.83-187.8,56.01-218.34,91.37-35.93,41.59,244.7,39.12,295.73,54.23,85.14,25.22-77.39,106.97-77.39,154.52" />
        <path class="cls-3"
            d="m326.66-75.7c0,43.83,187.8,56.01,218.34,91.37,35.93,41.59-244.7,39.12-295.73,54.23-85.14,25.22,77.39,106.97,77.39,154.52" />
        <path class="cls-3"
            d="m326.66-69.37c0,43.83,187.8,56.01,218.34,91.37,35.93,41.59-244.7,39.12-295.73,54.23-85.14,25.22,77.39,106.97,77.39,154.52" />
        <path class="cls-3"
            d="m326.66-63.04c0,43.83,187.8,56.01,218.34,91.37,35.93,41.59-244.7,39.12-295.73,54.23-85.14,25.22,77.39,106.97,77.39,154.52" />
        <path class="cls-3"
            d="m326.66-56.7c0,43.83,187.8,56.01,218.34,91.37,35.93,41.59-244.7,39.12-295.73,54.23-85.14,25.22,77.39,106.97,77.39,154.52" />
        <path class="cls-3"
            d="m326.66-50.37c0,43.83,187.8,56.01,218.34,91.37,35.93,41.59-244.7,39.12-295.73,54.23-85.14,25.22,77.39,106.97,77.39,154.52" />
        <path class="cls-3"
            d="m326.66-44.04c0,43.83,187.8,56.01,218.34,91.37,35.93,41.59-244.7,39.12-295.73,54.23-85.14,25.22,77.39,106.97,77.39,154.52" />
        <path class="cls-3"
            d="m326.66-37.71c0,43.83,187.8,56.01,218.34,91.37,35.93,41.59-244.7,39.12-295.73,54.23-85.14,25.22,77.39,106.97,77.39,154.52" />
        <path class="cls-3"
            d="m326.66-31.38c0,43.83,187.8,56.01,218.34,91.37,35.93,41.59-244.7,39.12-295.73,54.23-85.14,25.22,77.39,106.97,77.39,154.52" />
        <path class="cls-3"
            d="m326.66-25.05c0,43.83,187.8,56.01,218.34,91.37,35.93,41.59-244.7,39.12-295.73,54.23-85.14,25.22,77.39,106.97,77.39,154.52" />
        <path class="cls-3"
            d="m326.66-18.71c0,43.83,187.8,56.01,218.34,91.37,35.93,41.59-244.7,39.12-295.73,54.23-85.14,25.22,77.39,106.97,77.39,154.52" />
        <path class="cls-3"
            d="m326.66,224.31c0,43.83,187.8,56.01,218.34,91.37,35.93,41.59-244.7,39.12-295.73,54.23-85.14,25.22,77.39,106.97,77.39,154.52" />
        <path class="cls-3"
            d="m326.66,230.64c0,43.83,187.8,56.01,218.34,91.37,35.93,41.59-244.7,39.12-295.73,54.23-85.14,25.22,77.39,106.97,77.39,154.52" />
        <path class="cls-3"
            d="m326.66,236.97c0,43.83,187.8,56.01,218.34,91.37,35.93,41.59-244.7,39.12-295.73,54.23-85.14,25.22,77.39,106.97,77.39,154.52" />
        <path class="cls-3"
            d="m326.66,243.3c0,43.83,187.8,56.01,218.34,91.37,35.93,41.59-244.7,39.12-295.73,54.23-85.14,25.22,77.39,106.97,77.39,154.52" />
        <path class="cls-3"
            d="m326.66,249.63c0,43.83,187.8,56.01,218.34,91.37,35.93,41.59-244.7,39.12-295.73,54.23-85.14,25.22,77.39,106.97,77.39,154.52" />
        <path class="cls-3"
            d="m326.66,255.97c0,43.83,187.8,56.01,218.34,91.37,35.93,41.59-244.7,39.12-295.73,54.23-85.14,25.22,77.39,106.97,77.39,154.52" />
        <path class="cls-3"
            d="m326.66,262.3c0,43.83,187.8,56.01,218.34,91.37,35.93,41.59-244.7,39.12-295.73,54.23-85.14,25.22,77.39,106.97,77.39,154.52" />
        <path class="cls-3"
            d="m326.66,268.63c0,43.83,187.8,56.01,218.34,91.37,35.93,41.59-244.7,39.12-295.73,54.23-85.14,25.22,77.39,106.97,77.39,154.52" />
        <path class="cls-3"
            d="m326.66,274.96c0,43.83,187.8,56.01,218.34,91.37,35.93,41.59-244.7,39.12-295.73,54.23-85.14,25.22,77.39,106.97,77.39,154.52" />
        <path class="cls-3"
            d="m326.66,281.29c0,43.83,187.8,56.01,218.34,91.37,35.93,41.59-244.7,39.12-295.73,54.23-85.14,25.22,77.39,106.97,77.39,154.52" />
    </g>
</svg>